<svg width="40" height="40" viewBox="0 0 40 40" fill="none" xmlns="http://www.w3.org/2000/svg">
<g clip-path="url(#clip0)">
<path d="M20 40C31.0467 40 40 31.0467 40 20C40 8.95333 31.0467 0 20 0C8.95333 0 0 8.95333 0 20C0 31.0467 8.95333 40 20 40Z" fill="white"/>
<path d="M14.2029 22.8657L8.36953 28.6991C8.06953 28.9991 8.06953 29.4657 8.36953 29.7657L10.1362 31.5324C10.4362 31.8324 10.9029 31.8324 11.2029 31.5324L17.0362 25.6991C15.9029 24.9657 14.9362 23.9991 14.2029 22.8657Z" fill="#BFE9FF"/>
<path d="M29.2008 10.7313C25.2675 6.79792 18.9008 6.79792 14.9675 10.7313C11.0008 14.6646 11.0008 21.0313 14.9341 24.9646C18.8675 28.8979 25.2341 28.8979 29.1675 24.9646C33.1341 21.0313 33.1341 14.6646 29.2008 10.7313ZM22.0675 24.5646C18.3675 24.5646 15.3675 21.5646 15.3675 17.8646C15.3675 14.1646 18.3675 11.1646 22.0675 11.1646C25.7675 11.1646 28.7675 14.1646 28.7675 17.8646C28.7675 21.5646 25.7675 24.5646 22.0675 24.5646Z" fill="#56B4FC"/>
<path d="M16.1013 20.9312L13.668 23.3978C14.0346 23.9645 14.468 24.4645 14.9346 24.9645C15.4346 25.4645 15.9346 25.8645 16.5013 26.2312L18.968 23.7645C17.7346 23.1645 16.768 22.1645 16.1013 20.9312Z" fill="#1652F0"/>
<path d="M22.0667 13.3L23.1333 16.7667L26.6333 17.8334L23.1333 18.9334L22.0667 22.4L21 18.9334L17.5 17.8334L21 16.7667L22.0667 13.3Z" fill="#1652F0"/>
</g>
<defs>
<clipPath id="clip0">
<rect width="40" height="40" fill="white"/>
</clipPath>
</defs>
</svg>
