<svg width="120" height="120" viewBox="0 0 120 120" fill="none" xmlns="http://www.w3.org/2000/svg">
<path d="M60 120C26.9 120 0 93.1 0 60C0 26.9 26.9 0 60 0C93.1 0 120 26.9 120 60C120 93.1 93.1 120 60 120Z" fill="white"/>
<path d="M60.1 64.9C62.9167 64.9 65.2 62.6167 65.2 59.8C65.2 56.9834 62.9167 54.7 60.1 54.7C57.2833 54.7 55 56.9834 55 59.8C55 62.6167 57.2833 64.9 60.1 64.9Z" fill="white"/>
<path d="M75.9919 43.9973H43.9973V75.9919H75.9919V43.9973Z" fill="#56B4FC"/>
<path d="M59.9946 43.9973H43.9973V59.9946C52.8382 59.9946 59.9946 52.8382 59.9946 43.9973Z" fill="#1752EE"/>
<path d="M76.0027 59.9946C67.1618 59.9946 60.0054 67.1618 60.0054 75.9919H76.0027V59.9946Z" fill="#1752EE"/>
<path d="M76.0027 59.9946V43.9973H59.9946C59.9946 52.8382 67.1618 59.9946 76.0027 59.9946Z" fill="#1752EE"/>
<path d="M43.9973 59.9946V75.9919H59.9946C59.9946 67.1618 52.8382 59.9946 43.9973 59.9946Z" fill="#1752EE"/>
<path d="M76.0027 40.7785H79.2215V43.9973V59.6728C86.5174 58.1814 92 51.7331 92 43.9973C92 35.1671 84.8329 28 76.0027 28C68.2669 28 61.8186 33.4826 60.3273 40.7785H76.0027Z" fill="#C7EDFE"/>
<path d="M40.7785 59.6728V43.9973V40.7785H43.9973H59.6728C58.1814 33.4826 51.7331 28 43.9973 28C35.1671 28 28 35.1671 28 43.9973C28 51.7331 33.4826 58.1814 40.7785 59.6728Z" fill="#C7EDFE"/>
<path d="M79.2215 60.3273V76.0027V79.2215H76.0027H60.3273C61.8186 86.5174 68.2669 92 76.0027 92C84.8436 92 92 84.8329 92 76.0027C92 68.2669 86.5067 61.8079 79.2215 60.3273Z" fill="#C7EDFE"/>
<path d="M43.9973 79.2215H40.7785V76.0027V60.3273C33.4826 61.8079 28 68.2669 28 76.0027C28 84.8436 35.1671 92 43.9973 92C51.7331 92 58.1814 86.5174 59.6728 79.2215H43.9973Z" fill="#C7EDFE"/>
</svg>
