<svg width="41" height="40" viewBox="0 0 41 40" fill="none" xmlns="http://www.w3.org/2000/svg">
<g clip-path="url(#clip0)">
<path d="M20.5 40C31.5333 40 40.5 31.0333 40.5 20C40.5 8.96667 31.5333 0 20.5 0C9.46667 0 0.5 8.96667 0.5 20C0.5 31.0333 9.46667 40 20.5 40Z" fill="white"/>
<path d="M27.8666 14.8333V25.5C30.7999 25.5 33.1999 23.1 33.1999 20.1666C33.1999 17.2333 30.7999 14.8333 27.8666 14.8333Z" fill="#C7EDFE"/>
<path d="M21.2 20.1666C21.2 16.5 24.1667 13.5333 27.8334 13.5V10.3333C27.8334 9.76665 27.4 9.33331 26.8334 9.33331H14.1667C13.6 9.33331 13.1667 9.76665 13.1667 10.3333V29.6666C13.1667 30.2333 13.6 30.6666 14.1667 30.6666H26.8334C27.4 30.6666 27.8334 30.2333 27.8334 29.6666V26.8333C24.1667 26.8 21.2 23.8333 21.2 20.1666Z" fill="#1652F0"/>
<path d="M23.4333 23.1333C23.2333 22.8333 23.0666 22.5333 22.9333 22.2333C23.1 22.5667 23.2333 22.8667 23.4333 23.1333Z" fill="#1652F0"/>
<path d="M22.9334 22.2333C22.8001 21.9 22.7001 21.5667 22.6334 21.2333C22.7001 21.5667 22.8001 21.9 22.9334 22.2333Z" fill="#1652F0"/>
<path d="M26.8001 25.3667C26.4667 25.3 26.1334 25.2 25.8 25.0667C26.1 25.2 26.4334 25.3 26.8001 25.3667Z" fill="#1652F0"/>
<path d="M23.7333 23.5333C24.0667 23.9333 24.4333 24.2666 24.8667 24.5666C24.4667 24.2999 24.0667 23.9333 23.7333 23.5333Z" fill="#1652F0"/>
<path d="M25.8 15.2333C26.1334 15.1 26.4667 15 26.8001 14.9333C26.4334 15 26.1 15.1 25.8 15.2333Z" fill="#1652F0"/>
<path d="M24.8667 15.7333C24.4333 16.0333 24.0667 16.3667 23.7333 16.7667C24.0667 16.3667 24.4667 16.0333 24.8667 15.7333Z" fill="#1652F0"/>
<path d="M22.9333 18.0667C23.0666 17.7334 23.2333 17.4334 23.4333 17.1667C23.2333 17.4667 23.1 17.7667 22.9333 18.0667Z" fill="#1652F0"/>
<path d="M22.6334 19.0667C22.7001 18.7334 22.8001 18.4 22.9334 18.0667C22.8001 18.4 22.7001 18.7334 22.6334 19.0667Z" fill="#1652F0"/>
<path d="M26.8 14.9333C26.4667 15 26.1334 15.1 25.8 15.2333C25.4667 15.3667 25.1667 15.5333 24.9 15.7333C24.4667 16.0333 24.1 16.3667 23.7667 16.7667C23.6667 16.9 23.5667 17.0333 23.4667 17.1667C23.2667 17.4667 23.1 17.7667 22.9667 18.0667C22.8334 18.4 22.7334 18.7333 22.6667 19.0667C22.6 19.4 22.5667 19.7667 22.5667 20.1333C22.5667 20.5 22.6 20.8667 22.6667 21.2C22.7334 21.5333 22.8334 21.8667 22.9667 22.2C23.1 22.5333 23.2667 22.8333 23.4667 23.1C23.5667 23.2333 23.6667 23.3667 23.7667 23.5C24.1 23.9 24.4667 24.2333 24.9 24.5333C25.2 24.7333 25.5 24.9 25.8 25.0333C26.1334 25.1667 26.4667 25.2667 26.8 25.3333C27.1334 25.4 27.5 25.4333 27.8667 25.4333V14.7667C27.5 14.8333 27.1334 14.8667 26.8 14.9333Z" fill="#56B4FC"/>
</g>
<defs>
<clipPath id="clip0">
<rect width="40" height="40" fill="white" transform="translate(0.5)"/>
</clipPath>
</defs>
</svg>
