<svg width="41" height="40" viewBox="0 0 41 40" fill="none" xmlns="http://www.w3.org/2000/svg">
<rect x="0.5" width="40" height="40" rx="20" fill="white"/>
<path d="M15.2 17C15.2 16.8 15.2 16.6 15.2333 16.4C12.5 17.3667 10.5333 19.9334 10.5333 23C10.5333 26.8667 13.6667 30 17.5333 30C20.6 30 23.1667 28.0334 24.1333 25.3C23.9333 25.3 23.7333 25.3334 23.5333 25.3334C18.9333 25.3334 15.2 21.6 15.2 17V17Z" fill="#B6E9FF"/>
<path d="M18.1334 21.4667C18.4 21.8 18.7 22.1 19.0334 22.3667C18.8667 22.2333 18.7334 22.1 18.5667 21.9667C18.4334 21.8 18.2667 21.6333 18.1334 21.4667V21.4667Z" fill="#B6E9FF"/>
<path d="M17.1 19.7333C17.2667 20.1666 17.5 20.5666 17.7333 20.9333C17.8667 21.1333 18 21.3 18.1333 21.4666C18.2667 21.6333 18.4333 21.8 18.6 21.9666C17.9667 21.3333 17.4333 20.5666 17.1 19.7333ZM28.5 12.0333C28.1667 11.7 27.8333 11.4333 27.4667 11.1666C26.3333 10.4 25 9.96664 23.5667 9.96664C22.3667 9.96664 21.2333 10.2666 20.2333 10.8C19.4333 11.2333 18.7333 11.8 18.1667 12.5C17.2667 13.5666 16.7 14.9333 16.6 16.4C16.6 16.2666 16.6333 16.1333 16.6333 16C16.9333 15.9666 17.2333 15.9333 17.5667 15.9333C20.9667 15.9333 23.7667 18.3333 24.4333 21.5333C24.5333 22 24.5667 22.4666 24.5667 22.9333C24.5667 23.2333 24.5333 23.5666 24.5 23.8666C24.3667 23.9 24.2333 23.9 24.1 23.9C27.7 23.7 30.5333 20.6666 30.5333 17C30.5333 15.0666 29.7667 13.3 28.5 12.0333ZM20.8333 23.4666C20.4 23.3 20 23.0666 19.6333 22.8333C20 23.0666 20.4 23.2666 20.8333 23.4666Z" fill="#56B4FC"/>
<path d="M24.4667 23.9333C24.5 23.6333 24.5333 23.3333 24.5333 23C24.5333 22.5 24.5 22.0333 24.4 21.6C23.7333 18.4 20.9333 16 17.5333 16C17.2333 16 16.9 16.0333 16.6 16.0667C16.5667 16.2 16.5667 16.3333 16.5667 16.4667C16.5667 16.6333 16.5333 16.8333 16.5333 17C16.5333 17.9667 16.7333 18.9 17.1 19.7333C17.4667 20.5667 17.9667 21.3333 18.6 21.9667C18.7333 22.1 18.9 22.2333 19.0667 22.3667C19.2667 22.5333 19.4333 22.6667 19.6667 22.8C20.0333 23.0667 20.4333 23.2667 20.8667 23.4333C21.7 23.8 22.6333 24 23.6 24C23.8 24 23.9667 24 24.1333 23.9667C24.2333 23.9667 24.3333 23.9333 24.4667 23.9333V23.9333Z" fill="#1652F0"/>
</svg>
