<svg width="41" height="41" viewBox="0 0 41 41" fill="none" xmlns="http://www.w3.org/2000/svg">
<g clip-path="url(#clip0)">
<path d="M20.4998 40.152C31.5331 40.152 40.4998 31.1853 40.4998 20.152C40.4998 9.11864 31.5331 0.151978 20.4998 0.151978C9.46642 0.151978 0.499756 9.11864 0.499756 20.152C0.499756 31.1853 9.46642 40.152 20.4998 40.152Z" fill="white"/>
<path d="M29.8331 8.15198H20.4998V12.152H27.8331H29.1664V13.4853V19.8186C29.1664 24.2186 22.0664 29.352 21.2664 29.9186L20.4998 30.452V32.152H29.8331C30.5664 32.152 31.1664 31.552 31.1664 30.8186V9.48531C31.1664 8.75198 30.5664 8.15198 29.8331 8.15198Z" fill="#B6E9FF"/>
<path d="M13.1664 13.4853V19.8186C13.1664 23.652 20.4998 28.8186 20.4998 28.8186V13.4853H13.1664Z" fill="#58B2FA"/>
<path d="M27.8331 19.8186V13.4853H20.4998V28.8186C20.4998 28.8186 27.8331 23.652 27.8331 19.8186Z" fill="#1652F0"/>
</g>
<defs>
<clipPath id="clip0">
<rect width="40" height="40" fill="white" transform="translate(0.499756 0.151978)"/>
</clipPath>
</defs>
</svg>
