<svg width="41" height="40" viewBox="0 0 41 40" fill="none" xmlns="http://www.w3.org/2000/svg">
<path d="M20.5 40C9.45333 40 0.5 31.0467 0.5 20C0.5 8.95333 9.45333 0 20.5 0C31.5467 0 40.5 8.95333 40.5 20C40.5 31.0467 31.5467 40 20.5 40Z" fill="white"/>
<path d="M32.1466 22.2633L27.0299 27.38C26.7699 27.64 26.3466 27.64 26.0866 27.38L14.4399 15.7333L20.4999 9.67334L32.1466 21.32C32.4066 21.5833 32.4066 22.0033 32.1466 22.2633Z" fill="#56B4FC"/>
<path d="M20.4988 9.67502L14.439 15.7349L20.4988 21.7947L26.5587 15.7349L20.4988 9.67502Z" fill="#1752EE"/>
<path d="M13.4967 16.6768L8.85003 21.3234C8.59003 21.5834 8.59003 22.0068 8.85003 22.2668L13.9667 27.3801C14.2267 27.6401 14.65 27.6401 14.91 27.3801L19.5534 22.7368L13.4967 16.6768Z" fill="#B6E9FF"/>
</svg>
