<svg width="120" height="120" viewBox="0 0 120 120" fill="none" xmlns="http://www.w3.org/2000/svg">
<g clip-path="url(#clip0)">
<path d="M60.0002 120C93.1402 120 120 93.14 120 60C120 26.86 93.1402 0 60.0002 0C26.8602 0 0.000244141 26.86 0.000244141 60C0.000244141 93.14 26.8602 120 60.0002 120Z" fill="white"/>
<path fill-rule="evenodd" clip-rule="evenodd" d="M62.7289 79.1283L62.7298 79.1273L79.1277 62.7295L91.4359 75.0377C92.1883 75.79 92.1883 77.0151 91.4359 77.7674L77.7581 91.4356C77.0057 92.188 75.7807 92.188 75.0283 91.4356L62.7289 79.1283Z" fill="#C7EDFE"/>
<path fill-rule="evenodd" clip-rule="evenodd" d="M91.4263 42.2324L77.7581 28.5643C77.0057 27.8119 75.7904 27.8119 75.038 28.5643L62.73 40.8722L79.1271 57.2693L91.4263 44.9622C92.1786 44.2098 92.1786 42.9848 91.4263 42.2324ZM76.3979 59.9999L76.398 59.9997L60.0002 43.602L60.0001 43.6021L76.3979 59.9999Z" fill="#C7EDFE"/>
<path d="M59.9993 43.6033L43.6027 59.9999L59.9993 76.3966L76.396 59.9999L59.9993 43.6033Z" fill="#1752EE"/>
<path d="M42.2421 28.5643L28.5643 42.2421C27.8119 42.9945 27.8119 44.2195 28.5643 44.9719L43.6021 60.0001L60.0001 43.6021L44.9622 28.5643C44.2098 27.8119 42.9945 27.8119 42.2421 28.5643Z" fill="#56B4FC"/>
<path d="M43.6021 60L28.5643 75.0379C27.8119 75.7903 27.8119 77.0153 28.5643 77.7677L42.2324 91.4358C42.9848 92.1882 44.2098 92.1882 44.9622 91.4358L60.0001 76.398L43.6021 60Z" fill="#56B4FC"/>
</g>
<defs>
<clipPath id="clip0">
<rect width="120" height="120" fill="white"/>
</clipPath>
</defs>
</svg>
