<svg width="32" height="32" viewBox="0 0 32 32" fill="none" xmlns="http://www.w3.org/2000/svg">
<path d="M31.5 16C31.5 24.5604 24.5604 31.5 16 31.5C7.43959 31.5 0.5 24.5604 0.5 16C0.5 7.43959 7.43959 0.5 16 0.5C24.5604 0.5 31.5 7.43959 31.5 16Z" fill="white" stroke="#E7EBEE"/>
<g clip-path="url(#clip0)">
<path fill-rule="evenodd" clip-rule="evenodd" d="M23.1576 10.2579L25.9803 8.8197V10.5435L23.1378 11.9917L21.7625 12.6926L9.52434 18.9282C9.52466 18.9291 9.52498 18.93 9.5253 18.9308L8.84371 19.2781L8.15129 19.6309C8.15097 19.6301 8.15065 19.6292 8.1502 19.6284L6.01358 20.7171V18.9932L6.73957 18.6233C7.29173 18.342 7.6202 17.7564 7.57358 17.1385C7.55759 16.9254 7.5495 16.711 7.5495 16.4954C7.5495 15.3552 7.77294 14.2488 8.21358 13.2068C8.63912 12.2009 9.24817 11.2976 10.0236 10.5221C10.7992 9.74645 11.7026 9.13741 12.7086 8.71199C13.7505 8.27123 14.8569 8.04779 15.9969 8.04779C17.1371 8.04779 18.2433 8.27123 19.2852 8.71199C19.881 8.96391 20.4405 9.28078 20.9589 9.65792L20.7538 9.76231L19.3775 10.4636C18.3414 9.88085 17.1661 9.57473 15.9434 9.58391C14.1265 9.59754 12.3945 10.3233 11.1098 11.608C9.80434 12.9134 9.0853 14.6492 9.0853 16.4954C9.0853 16.7997 9.1053 17.1012 9.14396 17.3983L20.7538 11.4827L23.1576 10.2579ZM25.9803 12.2673V13.9911L25.2538 14.3612C24.7015 14.6426 24.3729 15.2284 24.4198 15.8465C24.4361 16.0613 24.4443 16.2778 24.4443 16.4953C24.4443 17.6353 24.221 18.7417 23.7803 19.7836C23.3548 20.7896 22.7457 21.693 21.9703 22.4686C21.1947 23.244 20.2913 23.8531 19.2853 24.2787C18.2434 24.7193 17.1369 24.9427 15.9969 24.9427C14.8568 24.9427 13.7506 24.7193 12.7087 24.2787C12.1107 24.0258 11.5495 23.7074 11.0293 23.3285L12.5215 22.5683L12.6098 22.5232C13.6462 23.1078 14.8224 23.4151 16.0461 23.4067C17.8644 23.3941 19.5984 22.6683 20.8841 21.3825C22.1896 20.0771 22.9086 18.3415 22.9086 16.4953C22.9086 16.1887 22.8883 15.8853 22.8493 15.5863L11.2278 21.5078L8.82396 22.7326L6.01364 24.1646V22.4409L8.84376 20.9987L10.2191 20.2981L25.9803 12.2673Z" fill="black"/>
</g>
<defs>
<clipPath id="clip0">
<rect width="20" height="16.9427" fill="white" transform="translate(6 8)"/>
</clipPath>
</defs>
</svg>
