<svg width="41" height="42" viewBox="0 0 41 42" fill="none" xmlns="http://www.w3.org/2000/svg">
<rect x="0.833252" y="0.708496" width="40" height="39.6078" rx="19.8039" fill="white"/>
<path d="M18.4666 23.9451C18.7332 24.2752 19.0332 24.5723 19.3666 24.8363C19.1999 24.7043 19.0666 24.5723 18.8999 24.4402C18.7666 24.2752 18.5999 24.1102 18.4666 23.9451V23.9451Z" fill="#B6E9FF"/>
<path d="M28.8333 20.0712L24.8333 14.5712L20.8333 20.0712H28.8333Z" fill="#1652F0"/>
<path d="M26.0833 18.5712H23.5833V25.2412H26.0833V18.5712Z" fill="#1652F0"/>
<path d="M12.8333 25.0712L16.8333 30.5712L20.8333 25.0712H12.8333Z" fill="#1652F0"/>
<path d="M18.0833 19.9012H15.5833V26.5712H18.0833V19.9012Z" fill="#1652F0"/>
<g clip-path="url(#clip0)">
<path d="M20.5 41.1519C31.5333 41.1519 40.5 32.1853 40.5 21.1519C40.5 10.1186 31.5333 1.15192 20.5 1.15192C9.46667 1.15192 0.5 10.1186 0.5 21.1519C0.5 32.1853 9.46667 41.1519 20.5 41.1519Z" fill="white"/>
<g clip-path="url(#clip1)">
<path d="M31.5 20.5H21L28.4255 27.9255C30.3253 26.0256 31.5 23.4006 31.5 20.5Z" fill="#1652F0"/>
<path d="M21 20.5V10C15.202 10 10.5 14.702 10.5 20.5C10.5 26.298 15.202 31 21 31C23.9006 31 26.5256 29.8253 28.4255 27.9255L21 20.5Z" fill="#56B4FC"/>
<path d="M26.25 11.4077L21 20.5H31.5C31.5 16.615 29.3869 13.2222 26.25 11.4077Z" fill="#B6E9FF"/>
</g>
</g>
<defs>
<clipPath id="clip0">
<rect width="40" height="40" fill="white" transform="translate(0.5 1.15192)"/>
</clipPath>
<clipPath id="clip1">
<rect width="21" height="21" fill="white" transform="translate(10.5 10)"/>
</clipPath>
</defs>
</svg>
