<svg width="41" height="40" viewBox="0 0 41 40" fill="none" xmlns="http://www.w3.org/2000/svg">
<g clip-path="url(#clip0)">
<path d="M20.8333 40C9.79992 40 0.833252 31.0333 0.833252 20C0.833252 8.96667 9.79992 0 20.8333 0C31.8666 0 40.8333 8.96667 40.8333 20C40.8333 31.0333 31.8666 40 20.8333 40Z" fill="white"/>
<path d="M29.8001 11.6666H14.1667L26.0334 16.7666C26.9001 17.1333 27.4334 17.9666 27.4334 18.9V25H29.7667C30.3334 25 30.7667 24.5666 30.7667 24V12.6666C30.8001 12.1 30.3334 11.6666 29.8001 11.6666Z" fill="#C7EDFE"/>
<path d="M10.8 25L13.8667 26.3333L24.5 30.9667C25.2667 31.3 26.1334 30.7333 26.1334 29.9V26.3333V25H10.8Z" fill="#56B4FC"/>
<path d="M26.1334 19.5666C26.1334 18.7666 25.6667 18.0333 24.9334 17.7333L10.8 11.6666V25H26.1334V19.5666Z" fill="#1652F0"/>
</g>
<defs>
<clipPath id="clip0">
<rect width="40" height="40" fill="white" transform="translate(0.833252)"/>
</clipPath>
</defs>
</svg>
